<svg xmlns="http://www.w3.org/2000/svg" xmlns:xlink="http://www.w3.org/1999/xlink" width="500" zoomAndPan="magnify" viewBox="0 0 375 374.999991" height="500" preserveAspectRatio="xMidYMid meet" version="1.0"><defs><g/><clipPath id="e955e7c793"><path d="M 20.039062 57.316406 L 333 57.316406 L 333 213.316406 L 20.039062 213.316406 Z M 20.039062 57.316406 " clip-rule="nonzero"/></clipPath><clipPath id="c033a24e25"><path d="M 270 182 L 320 182 L 320 213.316406 L 270 213.316406 Z M 270 182 " clip-rule="nonzero"/></clipPath></defs><path fill="#ffffff" d="M 338.996094 99.015625 L 318.140625 99.015625 C 309.699219 99.015625 302.828125 105.882812 302.828125 114.328125 C 302.828125 122.773438 309.699219 129.640625 318.140625 129.640625 L 338.996094 129.640625 C 347.4375 129.640625 354.308594 122.773438 354.308594 114.328125 C 354.308594 105.882812 347.4375 99.015625 338.996094 99.015625 Z M 338.996094 119.867188 L 318.140625 119.867188 C 315.089844 119.867188 312.601562 117.382812 312.601562 114.328125 C 312.601562 111.273438 315.089844 108.789062 318.140625 108.789062 L 338.996094 108.789062 C 342.050781 108.789062 344.535156 111.273438 344.535156 114.328125 C 344.535156 117.382812 342.050781 119.867188 338.996094 119.867188 Z M 338.996094 119.867188 " fill-opacity="1" fill-rule="nonzero"/><g clip-path="url(#e955e7c793)"><path fill="#ffffff" d="M 240.601562 182.421875 L 225.910156 182.421875 C 222.835938 182.421875 220.222656 180.058594 220.085938 177.15625 C 220.011719 175.621094 220.554688 174.164062 221.609375 173.0625 C 222.664062 171.953125 224.085938 171.34375 225.617188 171.34375 L 284.910156 171.34375 C 293.355469 171.34375 300.222656 164.472656 300.222656 156.027344 C 300.222656 147.589844 293.355469 140.722656 284.910156 140.722656 L 242.851562 140.722656 C 239.777344 140.722656 237.164062 138.355469 237.027344 135.453125 C 236.953125 133.917969 237.496094 132.464844 238.550781 131.355469 C 239.609375 130.25 241.03125 129.640625 242.558594 129.640625 L 264.714844 129.640625 C 273.15625 129.640625 280.023438 122.773438 280.023438 114.328125 C 280.023438 105.882812 273.15625 99.015625 264.714844 99.015625 L 217.441406 99.015625 C 214.363281 99.015625 211.75 96.652344 211.613281 93.753906 C 211.542969 92.214844 212.082031 90.761719 213.136719 89.65625 C 214.191406 88.546875 215.617188 87.941406 217.144531 87.941406 L 317.488281 87.941406 C 321.65625 87.941406 325.695312 86.210938 328.570312 83.199219 C 331.488281 80.136719 332.984375 76.125 332.789062 71.890625 C 332.402344 63.71875 325.554688 57.3125 317.199219 57.3125 L 125.109375 57.3125 C 122.410156 57.3125 120.222656 59.503906 120.222656 62.199219 C 120.222656 64.898438 122.410156 67.085938 125.109375 67.085938 L 317.199219 67.085938 C 320.273438 67.085938 322.886719 69.453125 323.023438 72.351562 C 323.097656 73.886719 322.554688 75.34375 321.5 76.449219 C 320.441406 77.554688 319.019531 78.164062 317.488281 78.164062 L 217.144531 78.164062 C 212.980469 78.164062 208.945312 79.894531 206.066406 82.910156 C 203.148438 85.96875 201.652344 89.980469 201.851562 94.210938 C 202.238281 102.386719 209.082031 108.792969 217.441406 108.792969 L 264.714844 108.792969 C 267.765625 108.792969 270.25 111.277344 270.25 114.328125 C 270.25 117.382812 267.765625 119.867188 264.714844 119.867188 L 242.558594 119.867188 C 238.390625 119.867188 234.355469 121.597656 231.480469 124.609375 C 228.5625 127.667969 227.066406 131.683594 227.261719 135.914062 C 227.648438 144.089844 234.496094 150.496094 242.851562 150.496094 L 284.910156 150.496094 C 287.964844 150.496094 290.449219 152.976562 290.449219 156.03125 C 290.449219 159.085938 287.964844 161.570312 284.910156 161.570312 L 225.617188 161.570312 C 221.449219 161.570312 217.414062 163.300781 214.535156 166.316406 C 211.617188 169.371094 210.125 173.386719 210.320312 177.617188 C 210.707031 185.792969 217.554688 192.199219 225.910156 192.199219 L 240.601562 192.199219 C 243.65625 192.199219 246.144531 194.683594 246.144531 197.738281 C 246.144531 200.792969 243.65625 203.273438 240.601562 203.273438 L 36.808594 203.273438 C 33.3125 203.273438 30.464844 200.425781 30.464844 196.929688 L 30.464844 96.410156 L 147.425781 96.410156 C 150.125 96.410156 152.3125 94.21875 152.3125 91.523438 C 152.3125 88.824219 150.125 86.636719 147.425781 86.636719 L 30.464844 86.636719 L 30.464844 73.433594 C 30.464844 69.933594 33.3125 67.085938 36.808594 67.085938 L 105.558594 67.085938 C 108.257812 67.085938 110.449219 64.898438 110.449219 62.199219 C 110.449219 59.503906 108.257812 57.3125 105.558594 57.3125 L 36.808594 57.3125 C 27.921875 57.3125 20.691406 64.546875 20.691406 73.433594 L 20.691406 196.925781 C 20.691406 205.816406 27.921875 213.042969 36.808594 213.042969 L 240.601562 213.042969 C 249.046875 213.042969 255.917969 206.175781 255.917969 197.730469 C 255.917969 189.289062 249.046875 182.421875 240.601562 182.421875 Z M 240.601562 182.421875 " fill-opacity="1" fill-rule="nonzero"/></g><g clip-path="url(#c033a24e25)"><path fill="#ffffff" d="M 303.808594 182.421875 L 285.5625 182.421875 C 277.117188 182.421875 270.25 189.289062 270.25 197.738281 C 270.25 206.175781 277.117188 213.042969 285.5625 213.042969 L 303.808594 213.042969 C 312.25 213.042969 319.117188 206.175781 319.117188 197.738281 C 319.117188 189.289062 312.25 182.421875 303.808594 182.421875 Z M 303.808594 203.269531 L 285.5625 203.269531 C 282.507812 203.269531 280.023438 200.785156 280.023438 197.738281 C 280.023438 194.683594 282.507812 192.199219 285.5625 192.199219 L 303.808594 192.199219 C 306.859375 192.199219 309.34375 194.683594 309.34375 197.738281 C 309.34375 200.785156 306.859375 203.269531 303.808594 203.269531 Z M 303.808594 203.269531 " fill-opacity="1" fill-rule="nonzero"/></g><path fill="#ffffff" d="M 189.128906 96.410156 C 191.828125 96.410156 194.015625 94.21875 194.015625 91.523438 C 194.015625 88.824219 191.828125 86.636719 189.128906 86.636719 L 167.625 86.636719 C 164.925781 86.636719 162.738281 88.824219 162.738281 91.523438 C 162.738281 94.21875 164.925781 96.410156 167.625 96.410156 Z M 189.128906 96.410156 " fill-opacity="1" fill-rule="nonzero"/><path fill="#ffffff" d="M 46.753906 77.839844 C 46.753906 80.179688 44.859375 82.078125 42.519531 82.078125 C 40.183594 82.078125 38.285156 80.179688 38.285156 77.839844 C 38.285156 75.5 40.183594 73.601562 42.519531 73.601562 C 44.859375 73.601562 46.753906 75.5 46.753906 77.839844 Z M 46.753906 77.839844 " fill-opacity="1" fill-rule="nonzero"/><path fill="#ffffff" d="M 62.390625 77.839844 C 62.390625 80.179688 60.496094 82.078125 58.15625 82.078125 C 55.820312 82.078125 53.921875 80.179688 53.921875 77.839844 C 53.921875 75.5 55.820312 73.601562 58.15625 73.601562 C 60.496094 73.601562 62.390625 75.5 62.390625 77.839844 Z M 62.390625 77.839844 " fill-opacity="1" fill-rule="nonzero"/><path fill="#ffffff" d="M 78.03125 77.839844 C 78.03125 80.179688 76.132812 82.078125 73.796875 82.078125 C 71.457031 82.078125 69.5625 80.179688 69.5625 77.839844 C 69.5625 75.5 71.457031 73.601562 73.796875 73.601562 C 76.132812 73.601562 78.03125 75.5 78.03125 77.839844 Z M 78.03125 77.839844 " fill-opacity="1" fill-rule="nonzero"/><path fill="#ffffff" d="M 58.679688 114.457031 C 56.773438 112.550781 53.679688 112.550781 51.769531 114.457031 L 37.761719 128.46875 C 35.851562 130.375 35.851562 133.46875 37.761719 135.378906 L 52.421875 150.039062 C 53.375 150.992188 54.625 151.472656 55.875 151.472656 C 57.125 151.472656 58.378906 150.992188 59.332031 150.039062 C 61.242188 148.128906 61.242188 145.035156 59.332031 143.132812 L 48.125 131.921875 L 58.679688 121.367188 C 60.589844 119.460938 60.589844 116.363281 58.679688 114.457031 Z M 58.679688 114.457031 " fill-opacity="1" fill-rule="nonzero"/><path fill="#ffffff" d="M 92.167969 150.039062 C 93.125 150.992188 94.375 151.472656 95.625 151.472656 C 96.875 151.472656 98.125 150.992188 99.078125 150.039062 L 113.742188 135.378906 C 115.648438 133.46875 115.648438 130.371094 113.742188 128.46875 L 99.730469 114.457031 C 97.824219 112.550781 94.726562 112.550781 92.820312 114.457031 C 90.914062 116.363281 90.914062 119.460938 92.820312 121.367188 L 103.375 131.921875 L 92.167969 143.132812 C 90.261719 145.035156 90.261719 148.128906 92.167969 150.039062 Z M 92.167969 150.039062 " fill-opacity="1" fill-rule="nonzero"/><path fill="#ffffff" d="M 68.578125 151.144531 C 70.292969 151.144531 71.957031 150.242188 72.851562 148.636719 L 88.488281 120.621094 C 89.804688 118.261719 88.957031 115.285156 86.605469 113.972656 C 84.246094 112.65625 81.269531 113.496094 79.953125 115.855469 L 64.316406 143.878906 C 63 146.234375 63.84375 149.207031 66.199219 150.523438 C 66.953125 150.945312 67.773438 151.144531 68.578125 151.144531 Z M 68.578125 151.144531 " fill-opacity="1" fill-rule="nonzero"/><path fill="#ffffff" d="M 129.179688 145.277344 L 171.535156 145.277344 C 174.230469 145.277344 176.421875 143.089844 176.421875 140.390625 C 176.421875 137.695312 174.230469 135.503906 171.535156 135.503906 L 129.179688 135.503906 C 126.484375 135.503906 124.292969 137.695312 124.292969 140.390625 C 124.292969 143.089844 126.484375 145.277344 129.179688 145.277344 Z M 129.179688 145.277344 " fill-opacity="1" fill-rule="nonzero"/><path fill="#ffffff" d="M 129.179688 122.472656 L 134.394531 122.472656 C 137.09375 122.472656 139.28125 120.285156 139.28125 117.585938 C 139.28125 114.886719 137.09375 112.699219 134.394531 112.699219 L 129.179688 112.699219 C 126.484375 112.699219 124.292969 114.886719 124.292969 117.585938 C 124.292969 120.285156 126.484375 122.472656 129.179688 122.472656 Z M 129.179688 122.472656 " fill-opacity="1" fill-rule="nonzero"/><path fill="#ffffff" d="M 212.910156 140.390625 C 212.910156 137.695312 210.722656 135.503906 208.023438 135.503906 L 187.824219 135.503906 C 185.125 135.503906 182.9375 137.695312 182.9375 140.390625 C 182.9375 143.089844 185.125 145.277344 187.824219 145.277344 L 208.023438 145.277344 C 210.722656 145.277344 212.910156 143.089844 212.910156 140.390625 Z M 212.910156 140.390625 " fill-opacity="1" fill-rule="nonzero"/><path fill="#ffffff" d="M 138.628906 164.503906 C 138.628906 161.804688 136.441406 159.617188 133.742188 159.617188 L 55.550781 159.617188 C 52.855469 159.617188 50.664062 161.804688 50.664062 164.503906 C 50.664062 167.199219 52.855469 169.390625 55.550781 169.390625 L 133.742188 169.390625 C 136.441406 169.390625 138.628906 167.199219 138.628906 164.503906 Z M 138.628906 164.503906 " fill-opacity="1" fill-rule="nonzero"/><path fill="#ffffff" d="M 187.824219 159.617188 L 150.683594 159.617188 C 147.984375 159.617188 145.796875 161.804688 145.796875 164.503906 C 145.796875 167.199219 147.984375 169.390625 150.683594 169.390625 L 187.824219 169.390625 C 190.523438 169.390625 192.710938 167.199219 192.710938 164.503906 C 192.710938 161.804688 190.523438 159.617188 187.824219 159.617188 Z M 187.824219 159.617188 " fill-opacity="1" fill-rule="nonzero"/><path fill="#ffffff" d="M 55.550781 181.117188 C 52.855469 181.117188 50.664062 183.304688 50.664062 186.003906 C 50.664062 188.699219 52.855469 190.890625 55.550781 190.890625 L 80.964844 190.890625 C 83.660156 190.890625 85.851562 188.699219 85.851562 186.003906 C 85.851562 183.304688 83.660156 181.117188 80.964844 181.117188 Z M 55.550781 181.117188 " fill-opacity="1" fill-rule="nonzero"/><path fill="#ffffff" d="M 95.949219 181.117188 C 93.25 181.117188 91.0625 183.304688 91.0625 186.003906 C 91.0625 188.699219 93.25 190.890625 95.949219 190.890625 L 110.285156 190.890625 C 112.984375 190.890625 115.171875 188.699219 115.171875 186.003906 C 115.171875 183.304688 112.984375 181.117188 110.285156 181.117188 Z M 95.949219 181.117188 " fill-opacity="1" fill-rule="nonzero"/><path fill="#ffffff" d="M 123.316406 190.890625 L 187.824219 190.890625 C 190.523438 190.890625 192.710938 188.699219 192.710938 186.003906 C 192.710938 183.304688 190.523438 181.117188 187.824219 181.117188 L 123.316406 181.117188 C 120.617188 181.117188 118.429688 183.304688 118.429688 186.003906 C 118.429688 188.699219 120.617188 190.890625 123.316406 190.890625 Z M 123.316406 190.890625 " fill-opacity="1" fill-rule="nonzero"/><path fill="#ffffff" d="M 144.492188 118.238281 C 144.492188 120.9375 146.683594 123.125 149.378906 123.125 L 189.128906 123.125 C 191.828125 123.125 194.015625 120.9375 194.015625 118.238281 C 194.015625 115.539062 191.828125 113.351562 189.128906 113.351562 L 149.378906 113.351562 C 146.683594 113.351562 144.492188 115.539062 144.492188 118.238281 Z M 144.492188 118.238281 " fill-opacity="1" fill-rule="nonzero"/><g fill="#ffffff" fill-opacity="1"><g transform="translate(3.308729, 298.576182)"><g><path d="M 16.03125 -53.828125 L 16.03125 -35.5 L 37.796875 -35.5 C 39.035156 -35.5 40.050781 -35.113281 40.84375 -34.34375 C 41.644531 -33.582031 42.046875 -32.582031 42.046875 -31.34375 C 42.046875 -30.28125 41.644531 -29.363281 40.84375 -28.59375 C 40.050781 -27.820312 39.035156 -27.4375 37.796875 -27.4375 L 16.03125 -27.4375 L 16.03125 -4.25 C 16.03125 -3.070312 15.597656 -2.066406 14.734375 -1.234375 C 13.878906 -0.410156 12.863281 0 11.6875 0 C 10.445312 0 9.410156 -0.410156 8.578125 -1.234375 C 7.753906 -2.066406 7.34375 -3.070312 7.34375 -4.25 L 7.34375 -57.71875 C 7.34375 -58.90625 7.753906 -59.910156 8.578125 -60.734375 C 9.410156 -61.554688 10.414062 -61.96875 11.59375 -61.96875 L 41.78125 -61.96875 C 43.019531 -61.96875 44.035156 -61.582031 44.828125 -60.8125 C 45.628906 -60.050781 46.03125 -59.050781 46.03125 -57.8125 C 46.03125 -56.75 45.617188 -55.816406 44.796875 -55.015625 C 43.972656 -54.222656 42.96875 -53.828125 41.78125 -53.828125 Z M 16.03125 -53.828125 "/></g></g></g><g fill="#ffffff" fill-opacity="1"><g transform="translate(53.240815, 298.576182)"><g><path d="M 40.8125 -46.390625 C 42.050781 -46.390625 43.066406 -45.972656 43.859375 -45.140625 C 44.660156 -44.316406 45.0625 -43.316406 45.0625 -42.140625 L 45.0625 -18.59375 C 45.0625 -12.457031 43.363281 -7.691406 39.96875 -4.296875 C 36.570312 -0.898438 31.773438 0.796875 25.578125 0.796875 C 19.441406 0.796875 14.691406 -0.898438 11.328125 -4.296875 C 7.960938 -7.691406 6.28125 -12.457031 6.28125 -18.59375 L 6.28125 -42.140625 C 6.28125 -43.316406 6.675781 -44.316406 7.46875 -45.140625 C 8.269531 -45.972656 9.265625 -46.390625 10.453125 -46.390625 C 11.691406 -46.390625 12.707031 -45.972656 13.5 -45.140625 C 14.300781 -44.316406 14.703125 -43.316406 14.703125 -42.140625 L 14.703125 -18.59375 C 14.703125 -10.863281 18.328125 -7 25.578125 -7 C 29.179688 -7 31.925781 -7.972656 33.8125 -9.921875 C 35.707031 -11.867188 36.65625 -14.757812 36.65625 -18.59375 L 36.65625 -42.140625 C 36.65625 -43.316406 37.050781 -44.316406 37.84375 -45.140625 C 38.644531 -45.972656 39.632812 -46.390625 40.8125 -46.390625 Z M 40.8125 -46.390625 "/></g></g></g><g fill="#ffffff" fill-opacity="1"><g transform="translate(104.589415, 298.576182)"><g><path d="M 29.921875 -47.453125 C 40.546875 -47.453125 45.859375 -41.078125 45.859375 -28.328125 L 45.859375 -4.25 C 45.859375 -3.070312 45.457031 -2.066406 44.65625 -1.234375 C 43.863281 -0.410156 42.847656 0 41.609375 0 C 40.429688 0 39.441406 -0.410156 38.640625 -1.234375 C 37.847656 -2.066406 37.453125 -3.070312 37.453125 -4.25 L 37.453125 -28.234375 C 37.453125 -31.722656 36.65625 -34.5 35.0625 -36.5625 C 33.46875 -38.625 30.867188 -39.65625 27.265625 -39.65625 C 24.898438 -39.65625 22.757812 -39.140625 20.84375 -38.109375 C 18.925781 -37.078125 17.421875 -35.691406 16.328125 -33.953125 C 15.242188 -32.210938 14.703125 -30.304688 14.703125 -28.234375 L 14.703125 -4.25 C 14.703125 -3.070312 14.300781 -2.066406 13.5 -1.234375 C 12.707031 -0.410156 11.691406 0 10.453125 0 C 9.210938 0 8.207031 -0.394531 7.4375 -1.1875 C 6.664062 -1.988281 6.28125 -3.007812 6.28125 -4.25 L 6.28125 -42.140625 C 6.28125 -43.316406 6.675781 -44.316406 7.46875 -45.140625 C 8.269531 -45.972656 9.265625 -46.390625 10.453125 -46.390625 C 11.691406 -46.390625 12.707031 -45.972656 13.5 -45.140625 C 14.300781 -44.316406 14.703125 -43.316406 14.703125 -42.140625 L 14.703125 -39.046875 C 16.234375 -41.398438 18.367188 -43.390625 21.109375 -45.015625 C 23.859375 -46.640625 26.796875 -47.453125 29.921875 -47.453125 Z M 29.921875 -47.453125 "/></g></g></g><g fill="#ffffff" fill-opacity="1"><g transform="translate(156.734821, 298.576182)"><g><path d="M 51.53125 -58.34375 C 52.945312 -57.570312 53.65625 -56.390625 53.65625 -54.796875 C 53.65625 -53.734375 53.300781 -52.757812 52.59375 -51.875 C 51.882812 -50.9375 50.910156 -50.46875 49.671875 -50.46875 C 48.835938 -50.46875 48.039062 -50.671875 47.28125 -51.078125 C 43.613281 -53.148438 39.65625 -54.1875 35.40625 -54.1875 C 30.976562 -54.1875 27.066406 -53.210938 23.671875 -51.265625 C 20.285156 -49.316406 17.644531 -46.582031 15.75 -43.0625 C 13.863281 -39.550781 12.921875 -35.523438 12.921875 -30.984375 C 12.921875 -26.085938 13.894531 -21.867188 15.84375 -18.328125 C 17.789062 -14.785156 20.472656 -12.082031 23.890625 -10.21875 C 27.316406 -8.363281 31.15625 -7.4375 35.40625 -7.4375 C 39.78125 -7.4375 43.738281 -8.5 47.28125 -10.625 C 47.988281 -10.976562 48.753906 -11.15625 49.578125 -11.15625 C 50.878906 -11.15625 51.910156 -10.65625 52.671875 -9.65625 C 53.378906 -8.769531 53.734375 -7.820312 53.734375 -6.8125 C 53.734375 -6.101562 53.539062 -5.4375 53.15625 -4.8125 C 52.78125 -4.195312 52.265625 -3.710938 51.609375 -3.359375 C 49.304688 -2.066406 46.722656 -1.035156 43.859375 -0.265625 C 41.003906 0.503906 38.1875 0.890625 35.40625 0.890625 C 29.6875 0.890625 24.421875 -0.378906 19.609375 -2.921875 C 14.796875 -5.460938 10.957031 -9.148438 8.09375 -13.984375 C 5.238281 -18.828125 3.8125 -24.492188 3.8125 -30.984375 C 3.8125 -36.941406 5.179688 -42.328125 7.921875 -47.140625 C 10.671875 -51.953125 14.445312 -55.726562 19.25 -58.46875 C 24.0625 -61.21875 29.445312 -62.59375 35.40625 -62.59375 C 41.132812 -62.59375 46.507812 -61.175781 51.53125 -58.34375 Z M 51.53125 -58.34375 "/></g></g></g><g fill="#ffffff" fill-opacity="1"><g transform="translate(213.218278, 298.576182)"><g><path d="M 50.203125 -23.1875 C 50.203125 -18.59375 49.164062 -14.460938 47.09375 -10.796875 C 45.03125 -7.140625 42.210938 -4.273438 38.640625 -2.203125 C 35.066406 -0.140625 31.128906 0.890625 26.828125 0.890625 C 22.515625 0.890625 18.570312 -0.140625 15 -2.203125 C 11.4375 -4.273438 8.617188 -7.140625 6.546875 -10.796875 C 4.484375 -14.460938 3.453125 -18.59375 3.453125 -23.1875 C 3.453125 -27.789062 4.484375 -31.953125 6.546875 -35.671875 C 8.617188 -39.390625 11.4375 -42.28125 15 -44.34375 C 18.570312 -46.414062 22.515625 -47.453125 26.828125 -47.453125 C 31.128906 -47.453125 35.066406 -46.414062 38.640625 -44.34375 C 42.210938 -42.28125 45.03125 -39.390625 47.09375 -35.671875 C 49.164062 -31.953125 50.203125 -27.789062 50.203125 -23.1875 Z M 41.78125 -23.1875 C 41.78125 -26.375 41.113281 -29.222656 39.78125 -31.734375 C 38.457031 -34.242188 36.660156 -36.191406 34.390625 -37.578125 C 32.117188 -38.960938 29.597656 -39.65625 26.828125 -39.65625 C 24.046875 -39.65625 21.519531 -38.960938 19.25 -37.578125 C 16.976562 -36.191406 15.175781 -34.242188 13.84375 -31.734375 C 12.519531 -29.222656 11.859375 -26.375 11.859375 -23.1875 C 11.859375 -20.0625 12.519531 -17.257812 13.84375 -14.78125 C 15.175781 -12.300781 16.976562 -10.367188 19.25 -8.984375 C 21.519531 -7.597656 24.046875 -6.90625 26.828125 -6.90625 C 29.597656 -6.90625 32.117188 -7.597656 34.390625 -8.984375 C 36.660156 -10.367188 38.457031 -12.300781 39.78125 -14.78125 C 41.113281 -17.257812 41.78125 -20.0625 41.78125 -23.1875 Z M 41.78125 -23.1875 "/></g></g></g><g fill="#ffffff" fill-opacity="1"><g transform="translate(266.868708, 298.576182)"><g><path d="M 43.90625 -65.515625 C 45.144531 -65.515625 46.160156 -65.113281 46.953125 -64.3125 C 47.753906 -63.519531 48.15625 -62.503906 48.15625 -61.265625 L 48.15625 -4.25 C 48.15625 -3.070312 47.753906 -2.066406 46.953125 -1.234375 C 46.160156 -0.410156 45.144531 0 43.90625 0 C 42.664062 0 41.660156 -0.394531 40.890625 -1.1875 C 40.128906 -1.988281 39.75 -3.007812 39.75 -4.25 L 39.75 -6.734375 C 38.269531 -4.609375 36.1875 -2.804688 33.5 -1.328125 C 30.820312 0.148438 27.945312 0.890625 24.875 0.890625 C 20.863281 0.890625 17.234375 -0.140625 13.984375 -2.203125 C 10.742188 -4.273438 8.175781 -7.15625 6.28125 -10.84375 C 4.394531 -14.53125 3.453125 -18.675781 3.453125 -23.28125 C 3.453125 -27.882812 4.378906 -32.03125 6.234375 -35.71875 C 8.097656 -39.40625 10.648438 -42.28125 13.890625 -44.34375 C 17.140625 -46.414062 20.710938 -47.453125 24.609375 -47.453125 C 27.734375 -47.453125 30.625 -46.800781 33.28125 -45.5 C 35.9375 -44.207031 38.09375 -42.523438 39.75 -40.453125 L 39.75 -61.265625 C 39.75 -62.503906 40.128906 -63.519531 40.890625 -64.3125 C 41.660156 -65.113281 42.664062 -65.515625 43.90625 -65.515625 Z M 25.84375 -6.90625 C 28.625 -6.90625 31.085938 -7.613281 33.234375 -9.03125 C 35.390625 -10.445312 37.070312 -12.394531 38.28125 -14.875 C 39.5 -17.351562 40.109375 -20.15625 40.109375 -23.28125 C 40.109375 -26.351562 39.5 -29.140625 38.28125 -31.640625 C 37.070312 -34.148438 35.390625 -36.113281 33.234375 -37.53125 C 31.085938 -38.945312 28.625 -39.65625 25.84375 -39.65625 C 23.070312 -39.65625 20.609375 -38.945312 18.453125 -37.53125 C 16.304688 -36.113281 14.625 -34.148438 13.40625 -31.640625 C 12.195312 -29.140625 11.59375 -26.351562 11.59375 -23.28125 C 11.59375 -20.15625 12.195312 -17.351562 13.40625 -14.875 C 14.625 -12.394531 16.304688 -10.445312 18.453125 -9.03125 C 20.609375 -7.613281 23.070312 -6.90625 25.84375 -6.90625 Z M 25.84375 -6.90625 "/></g></g></g><g fill="#ffffff" fill-opacity="1"><g transform="translate(321.227409, 298.576182)"><g><path d="M 47.015625 -24.96875 C 46.953125 -23.90625 46.503906 -23.003906 45.671875 -22.265625 C 44.847656 -21.523438 43.878906 -21.15625 42.765625 -21.15625 L 11.59375 -21.15625 C 12.007812 -16.851562 13.648438 -13.398438 16.515625 -10.796875 C 19.378906 -8.203125 22.875 -6.90625 27 -6.90625 C 29.832031 -6.90625 32.132812 -7.316406 33.90625 -8.140625 C 35.675781 -8.972656 37.238281 -10.035156 38.59375 -11.328125 C 39.476562 -11.859375 40.335938 -12.125 41.171875 -12.125 C 42.171875 -12.125 43.007812 -11.769531 43.6875 -11.0625 C 44.363281 -10.351562 44.703125 -9.53125 44.703125 -8.59375 C 44.703125 -7.351562 44.113281 -6.226562 42.9375 -5.21875 C 41.226562 -3.507812 38.957031 -2.0625 36.125 -0.875 C 33.289062 0.300781 30.394531 0.890625 27.4375 0.890625 C 22.664062 0.890625 18.460938 -0.113281 14.828125 -2.125 C 11.203125 -4.132812 8.398438 -6.9375 6.421875 -10.53125 C 4.441406 -14.132812 3.453125 -18.207031 3.453125 -22.75 C 3.453125 -27.707031 4.46875 -32.0625 6.5 -35.8125 C 8.539062 -39.5625 11.226562 -42.4375 14.5625 -44.4375 C 17.894531 -46.445312 21.476562 -47.453125 25.3125 -47.453125 C 29.09375 -47.453125 32.632812 -46.476562 35.9375 -44.53125 C 39.25 -42.582031 41.90625 -39.894531 43.90625 -36.46875 C 45.914062 -33.050781 46.953125 -29.21875 47.015625 -24.96875 Z M 25.3125 -39.65625 C 22.007812 -39.65625 19.148438 -38.722656 16.734375 -36.859375 C 14.316406 -35.003906 12.722656 -32.128906 11.953125 -28.234375 L 38.0625 -28.234375 L 38.0625 -28.953125 C 37.769531 -32.078125 36.367188 -34.640625 33.859375 -36.640625 C 31.347656 -38.648438 28.5 -39.65625 25.3125 -39.65625 Z M 25.3125 -39.65625 "/></g></g></g></svg>